# Blender v2.79 (sub 0) OBJ File: 'barrier.blend'
# www.blender.org
mtllib barrier.mtl
o Cube
v -6.000000 0.000000 1.000000
v -5.383405 4.000000 0.459609
v -6.000000 0.000000 -1.000000
v -5.383405 4.000000 -0.459609
v 6.000000 0.000000 1.000000
v 5.383405 4.000000 0.459609
v 6.000000 0.000000 -1.000000
v 5.383405 4.000000 -0.459609
v -5.796123 1.342577 0.668704
v -5.796123 1.342577 -0.668704
v 5.796123 1.342577 -0.668704
v 5.796123 1.342577 0.668704
vt 0.901748 0.279879
vt 0.918990 0.172310
vt 0.960735 0.200462
vt 0.873375 0.262317
vt 0.490788 0.051742
vt 0.483921 0.154097
vt 0.438981 0.052441
vt 0.450049 0.154793
vt 0.023190 0.190312
vt 0.000065 0.314638
vt 0.405322 0.280039
vt 0.405322 0.314638
vt 0.000065 0.144530
vt 0.426665 0.001712
vt 0.499943 0.000065
vt 0.938537 0.123102
vt 0.999935 0.165856
vt 0.068781 0.279910
vt 0.000065 0.280039
vn -0.9882 0.1535 0.0000
vn 0.0000 0.0784 -0.9969
vn 0.9882 0.1535 0.0000
vn 0.0000 0.0784 0.9969
vn 0.0000 1.0000 0.0000
vn 0.0000 0.2396 0.9709
vn 0.9887 0.1501 0.0000
vn 0.0000 0.2396 -0.9709
vn -0.9887 0.1501 0.0000
usemtl None
s off
f 2/1/1 10/2/1 9/3/1
f 4/4/2 11/5/2 10/2/2
f 8/6/3 12/7/3 11/5/3
f 6/8/4 9/9/4 12/7/4
f 4/10/5 6/11/5 8/12/5
f 12/7/6 1/13/6 5/14/6
f 11/5/7 5/14/7 7/15/7
f 10/2/8 7/15/8 3/16/8
f 9/3/9 3/16/9 1/17/9
f 2/1/1 4/4/1 10/2/1
f 4/4/2 8/6/2 11/5/2
f 8/6/3 6/8/3 12/7/3
f 6/8/4 2/18/4 9/9/4
f 4/10/5 2/19/5 6/11/5
f 12/7/6 9/9/6 1/13/6
f 11/5/7 12/7/7 5/14/7
f 10/2/8 11/5/8 7/15/8
f 9/3/9 10/2/9 3/16/9
