# Blender v2.79 (sub 0) OBJ File: 'bridge.blend'
# www.blender.org
mtllib bridge.mtl
o Cube.001
v -17.500000 8.000000 5.000000
v -17.737053 9.332803 5.000000
v -17.500000 8.000000 -5.000000
v -17.737053 9.332803 -5.000000
v 17.500000 8.000000 5.000000
v 17.737053 9.332803 5.000000
v 17.500000 8.000000 -5.000000
v 17.737053 9.332803 -5.000000
v -17.737053 10.000000 0.000000
v 17.737053 10.000000 0.000000
vt 0.564066 0.641614
vt 0.564092 0.679767
vt 0.423148 0.698376
vt 0.000105 0.037669
vt 0.993214 0.000106
vt 0.999895 0.037669
vt 0.282230 0.641614
vt 0.000105 0.179836
vt 0.999895 0.322004
vt 0.000105 0.322004
vt 0.993213 0.641403
vt 0.006786 0.359566
vt 0.993214 0.359567
vt 0.282204 0.679767
vt 0.999895 0.179836
vt 0.006786 0.000105
vt 0.141049 0.641614
vt 0.281968 0.698376
vt 0.000131 0.698376
vt 0.006786 0.641403
vt 0.281994 0.660223
vt 0.000105 0.660223
vn 0.9843 -0.1751 0.0234
vn 0.0000 0.0000 1.0000
vn 0.9930 -0.1177 0.0000
vn 0.0000 0.9912 -0.1323
vn 0.0000 -1.0000 0.0000
vn 0.9843 -0.1751 -0.0234
vn 0.0000 0.9912 0.1323
vn -0.9930 -0.1177 0.0000
vn 0.0000 0.0000 -1.0000
vn -0.9843 -0.1751 0.0234
vn -0.9843 -0.1751 -0.0234
usemtl None
s off
f 7/1/1 8/2/1 10/3/1
f 2/4/2 5/5/2 6/6/2
f 10/3/3 5/7/3 7/1/3
f 9/8/4 8/9/4 4/10/4
f 5/11/5 3/12/5 7/13/5
f 10/3/6 6/14/6 5/7/6
f 2/4/7 10/15/7 9/8/7
f 2/4/2 1/16/2 5/5/2
f 9/17/8 3/18/8 1/19/8
f 9/8/4 10/15/4 8/9/4
f 5/11/5 1/20/5 3/12/5
f 8/9/9 3/12/9 4/10/9
f 9/17/10 4/21/10 3/18/10
f 8/9/9 7/13/9 3/12/9
f 1/19/11 2/22/11 9/17/11
f 2/4/7 6/6/7 10/15/7
o Cube
v 14.600000 0.000000 4.400000
v 14.600000 8.000000 4.400000
v 14.600000 0.000000 3.600000
v 14.600000 8.000000 3.600000
v 15.400000 0.000000 4.400000
v 15.400000 8.000000 4.400000
v 15.400000 0.000000 3.600000
v 15.400000 8.000000 3.600000
v 14.600000 0.000000 -3.600000
v 14.600000 8.000000 -3.600000
v 14.600000 0.000000 -4.400000
v 14.600000 8.000000 -4.400000
v 15.400000 0.000000 -3.600000
v 15.400000 8.000000 -3.600000
v 15.400000 0.000000 -4.400000
v 15.400000 8.000000 -4.400000
v -0.400000 0.000000 4.400000
v -0.400000 8.000000 4.400000
v -0.400000 0.000000 3.600000
v -0.400000 8.000000 3.600000
v 0.400000 0.000000 4.400000
v 0.400000 8.000000 4.400000
v 0.400000 0.000000 3.600000
v 0.400000 8.000000 3.600000
v -0.400000 0.000000 -3.600000
v -0.400000 8.000000 -3.600000
v -0.400000 0.000000 -4.400000
v -0.400000 8.000000 -4.400000
v 0.400000 0.000000 -3.600000
v 0.400000 8.000000 -3.600000
v 0.400000 0.000000 -4.400000
v 0.400000 8.000000 -4.400000
v -15.400000 0.000000 4.400000
v -15.400000 8.000000 4.400000
v -15.400000 0.000000 3.600000
v -15.400000 8.000000 3.600000
v -14.600000 0.000000 4.400000
v -14.600000 8.000000 4.400000
v -14.600000 0.000000 3.600000
v -14.600000 8.000000 3.600000
v -15.400000 0.000000 -3.600000
v -15.400000 8.000000 -3.600000
v -15.400000 0.000000 -4.400000
v -15.400000 8.000000 -4.400000
v -14.600000 0.000000 -3.600000
v -14.600000 8.000000 -3.600000
v -14.600000 0.000000 -4.400000
v -14.600000 8.000000 -4.400000
vt 0.400014 0.999937
vt 0.300027 0.000063
vt 0.400015 0.000063
vt 0.300027 0.999937
vt 0.200039 0.000063
vt 0.200039 0.999937
vt 0.100051 0.000063
vt 0.100052 0.999937
vt 0.000063 0.000063
vt 0.000064 0.999937
vt 0.400014 0.999937
vt 0.300027 0.000063
vt 0.400015 0.000063
vt 0.300027 0.999937
vt 0.200039 0.000063
vt 0.200039 0.999937
vt 0.100051 0.000063
vt 0.100052 0.999937
vt 0.000063 0.000063
vt 0.000064 0.999937
vt 0.400014 0.999937
vt 0.300027 0.000063
vt 0.400015 0.000063
vt 0.300027 0.999937
vt 0.200039 0.000063
vt 0.200039 0.999937
vt 0.100051 0.000063
vt 0.100052 0.999937
vt 0.000063 0.000063
vt 0.000064 0.999937
vt 0.400014 0.999937
vt 0.300027 0.000063
vt 0.400015 0.000063
vt 0.300027 0.999937
vt 0.200039 0.000063
vt 0.200039 0.999937
vt 0.100051 0.000063
vt 0.100052 0.999937
vt 0.000063 0.000063
vt 0.000064 0.999937
vt 0.400014 0.999937
vt 0.300027 0.000063
vt 0.400015 0.000063
vt 0.300027 0.999937
vt 0.200039 0.000063
vt 0.200039 0.999937
vt 0.100051 0.000063
vt 0.100052 0.999937
vt 0.000063 0.000063
vt 0.000064 0.999937
vt 0.400014 0.999937
vt 0.300027 0.000063
vt 0.400015 0.000063
vt 0.300027 0.999937
vt 0.200039 0.000063
vt 0.200039 0.999937
vt 0.100051 0.000063
vt 0.100052 0.999937
vt 0.000063 0.000063
vt 0.000064 0.999937
vn -1.0000 0.0000 0.0000
vn 0.0000 0.0000 -1.0000
vn 1.0000 0.0000 0.0000
vn 0.0000 0.0000 1.0000
usemtl None
s off
f 12/23/12 13/24/12 11/25/12
f 14/26/13 17/27/13 13/24/13
f 18/28/14 15/29/14 17/27/14
f 16/30/15 11/31/15 15/29/15
f 12/23/12 14/26/12 13/24/12
f 14/26/13 18/28/13 17/27/13
f 18/28/14 16/30/14 15/29/14
f 16/30/15 12/32/15 11/31/15
f 20/33/12 21/34/12 19/35/12
f 22/36/13 25/37/13 21/34/13
f 26/38/14 23/39/14 25/37/14
f 24/40/15 19/41/15 23/39/15
f 20/33/12 22/36/12 21/34/12
f 22/36/13 26/38/13 25/37/13
f 26/38/14 24/40/14 23/39/14
f 24/40/15 20/42/15 19/41/15
f 28/43/12 29/44/12 27/45/12
f 30/46/13 33/47/13 29/44/13
f 34/48/14 31/49/14 33/47/14
f 32/50/15 27/51/15 31/49/15
f 28/43/12 30/46/12 29/44/12
f 30/46/13 34/48/13 33/47/13
f 34/48/14 32/50/14 31/49/14
f 32/50/15 28/52/15 27/51/15
f 36/53/12 37/54/12 35/55/12
f 38/56/13 41/57/13 37/54/13
f 42/58/14 39/59/14 41/57/14
f 40/60/15 35/61/15 39/59/15
f 36/53/12 38/56/12 37/54/12
f 38/56/13 42/58/13 41/57/13
f 42/58/14 40/60/14 39/59/14
f 40/60/15 36/62/15 35/61/15
f 44/63/12 45/64/12 43/65/12
f 46/66/13 49/67/13 45/64/13
f 50/68/14 47/69/14 49/67/14
f 48/70/15 43/71/15 47/69/15
f 44/63/12 46/66/12 45/64/12
f 46/66/13 50/68/13 49/67/13
f 50/68/14 48/70/14 47/69/14
f 48/70/15 44/72/15 43/71/15
f 52/73/12 53/74/12 51/75/12
f 54/76/13 57/77/13 53/74/13
f 58/78/14 55/79/14 57/77/14
f 56/80/15 51/81/15 55/79/15
f 52/73/12 54/76/12 53/74/12
f 54/76/13 58/78/13 57/77/13
f 58/78/14 56/80/14 55/79/14
f 56/80/15 52/82/15 51/81/15
o Plane
v 16.000000 0.000000 5.000000
v 16.000000 0.000000 -5.000000
v 16.000000 -2.500000 5.000000
v 16.000000 -2.500000 -5.000000
v 3.200000 -0.595183 5.000000
v 9.600000 -2.500000 5.000000
v 9.600000 -2.500000 -5.000000
v 3.200000 -0.595183 -5.000000
v -16.000000 0.000000 5.000000
v -16.000000 0.000000 -5.000000
v -16.000000 -2.500000 5.000000
v -16.000000 -2.500000 -5.000000
v -3.200000 -0.595183 5.000000
v -9.600000 -2.500000 5.000000
v -9.600000 -2.500000 -5.000000
v -3.200000 -0.595183 -5.000000
v 0.000000 0.000000 5.000000
v 0.000000 0.000000 -5.000000
v 0.000000 -0.595183 5.000000
v 0.000000 -0.595183 -5.000000
vt 0.120991 0.092955
vt 0.001067 0.120664
vt 0.000096 0.098179
vt 0.604477 0.945668
vt 0.359366 0.927932
vt 0.393644 0.571527
vt 0.999904 0.093951
vt 0.624482 0.093951
vt 0.624482 0.000096
vt 0.359671 0.010543
vt 0.605542 0.094545
vt 0.621867 0.472341
vt 0.017392 0.498461
vt 0.141691 0.515951
vt 0.116689 0.903730
vt 0.624290 0.568375
vt 0.999904 0.000096
vt 0.000096 0.896929
vt 0.601461 0.000096
vt 0.018187 0.520193
vt 0.120991 0.092955
vt 0.604477 0.945668
vt 0.393644 0.571527
vt 0.359366 0.927932
vt 0.999904 0.093951
vt 0.624482 0.000096
vt 0.624482 0.093951
vt 0.359671 0.010543
vt 0.605542 0.094545
vt 0.621867 0.472341
vt 0.141691 0.515951
vt 0.116689 0.903730
vt 0.624290 0.568375
vt 0.999904 0.000096
vt 0.601461 0.000096
vn 0.0000 0.0000 1.0000
vn 0.0000 -1.0000 0.0000
vn 1.0000 0.0000 0.0000
vn 0.0000 1.0000 0.0000
vn 0.0000 0.0000 -1.0000
vn -0.2853 -0.9584 0.0000
vn -1.0000 0.0000 0.0000
vn 0.2853 -0.9584 0.0000
usemtl None
s off
f 63/83/16 75/84/16 77/85/16
f 61/86/17 64/87/17 65/88/17
f 60/89/18 59/90/18 61/91/18
f 64/92/16 59/93/16 63/83/16
f 75/84/16 63/83/16 59/93/16
f 59/93/19 60/94/19 76/95/19
f 76/95/20 60/94/20 66/96/20
f 64/87/21 63/97/21 66/96/21
f 62/98/20 65/88/20 60/94/20
f 59/93/19 76/95/19 75/84/19
f 60/89/18 61/91/18 62/99/18
f 66/96/17 63/97/17 77/100/17
f 61/86/17 65/88/17 62/98/17
f 61/101/16 59/93/16 64/92/16
f 76/95/20 66/96/20 78/102/20
f 66/96/20 60/94/20 65/88/20
f 64/87/21 66/96/21 65/88/21
f 66/96/17 77/100/17 78/102/17
f 71/103/16 77/85/16 75/84/16
f 69/104/17 73/105/17 72/106/17
f 68/107/22 69/108/22 67/109/22
f 72/110/16 71/103/16 67/111/16
f 75/84/16 67/111/16 71/103/16
f 67/111/19 76/95/19 68/112/19
f 76/95/20 74/113/20 68/112/20
f 72/106/23 74/113/23 71/114/23
f 70/115/20 68/112/20 73/105/20
f 67/111/19 75/84/19 76/95/19
f 68/107/22 70/116/22 69/108/22
f 74/113/17 77/100/17 71/114/17
f 69/104/17 70/115/17 73/105/17
f 69/117/16 72/110/16 67/111/16
f 76/95/20 78/102/20 74/113/20
f 74/113/20 73/105/20 68/112/20
f 72/106/23 73/105/23 74/113/23
f 74/113/17 78/102/17 77/100/17
