# Blender v2.79 (sub 0) OBJ File: 'canopy.blend'
# www.blender.org
mtllib canopy.mtl
o Cube.001
v -14.000000 0.000000 14.000000
v -14.000000 15.000000 14.000000
v -14.000000 0.000000 12.000000
v -14.000000 15.000000 12.000000
v -12.000000 0.000000 14.000000
v -12.000000 15.000000 14.000000
v -12.000000 0.000000 12.000000
v -12.000000 15.000000 12.000000
v 12.000000 0.000000 14.000000
v 12.000000 15.000000 14.000000
v 12.000000 0.000000 12.000000
v 12.000000 15.000000 12.000000
v 14.000000 0.000000 14.000000
v 14.000000 15.000000 14.000000
v 14.000000 0.000000 12.000000
v 14.000000 15.000000 12.000000
v -14.000000 0.000000 -12.000000
v -14.000000 15.000000 -12.000000
v -14.000000 0.000000 -14.000000
v -14.000000 15.000000 -14.000000
v -12.000000 0.000000 -12.000000
v -12.000000 15.000000 -12.000000
v -12.000000 0.000000 -14.000000
v -12.000000 15.000000 -14.000000
v 12.000000 0.000000 -12.000000
v 12.000000 15.000000 -12.000000
v 12.000000 0.000000 -14.000000
v 12.000000 15.000000 -14.000000
v 14.000000 0.000000 -12.000000
v 14.000000 15.000000 -12.000000
v 14.000000 0.000000 -14.000000
v 14.000000 15.000000 -14.000000
vt 0.133387 0.999927
vt 0.000073 0.000073
vt 0.133387 0.000073
vt 0.533328 0.999927
vt 0.400015 0.000073
vt 0.533329 0.000073
vt 0.400015 0.999927
vt 0.266701 0.000073
vt 0.266701 0.999927
vt 0.000073 0.999927
vt 0.133387 0.999927
vt 0.000073 0.000073
vt 0.133387 0.000073
vt 0.533328 0.999927
vt 0.400015 0.000073
vt 0.533329 0.000073
vt 0.400015 0.999927
vt 0.266701 0.000073
vt 0.266701 0.999927
vt 0.000073 0.999927
vt 0.133387 0.999927
vt 0.000073 0.000073
vt 0.133387 0.000073
vt 0.533328 0.999927
vt 0.400015 0.000073
vt 0.533329 0.000073
vt 0.400015 0.999927
vt 0.266701 0.000073
vt 0.266701 0.999927
vt 0.000073 0.999927
vt 0.133387 0.999927
vt 0.000073 0.000073
vt 0.133387 0.000073
vt 0.533328 0.999927
vt 0.400015 0.000073
vt 0.533329 0.000073
vt 0.400015 0.999927
vt 0.266701 0.000073
vt 0.266701 0.999927
vt 0.000073 0.999927
vn -1.0000 0.0000 0.0000
vn 0.0000 0.0000 -1.0000
vn 1.0000 0.0000 0.0000
vn 0.0000 0.0000 1.0000
usemtl None
s off
f 2/1/1 3/2/1 1/3/1
f 4/4/2 7/5/2 3/6/2
f 8/7/3 5/8/3 7/5/3
f 6/9/4 1/3/4 5/8/4
f 2/1/1 4/10/1 3/2/1
f 4/4/2 8/7/2 7/5/2
f 8/7/3 6/9/3 5/8/3
f 6/9/4 2/1/4 1/3/4
f 10/11/1 11/12/1 9/13/1
f 12/14/2 15/15/2 11/16/2
f 16/17/3 13/18/3 15/15/3
f 14/19/4 9/13/4 13/18/4
f 10/11/1 12/20/1 11/12/1
f 12/14/2 16/17/2 15/15/2
f 16/17/3 14/19/3 13/18/3
f 14/19/4 10/11/4 9/13/4
f 18/21/1 19/22/1 17/23/1
f 20/24/2 23/25/2 19/26/2
f 24/27/3 21/28/3 23/25/3
f 22/29/4 17/23/4 21/28/4
f 18/21/1 20/30/1 19/22/1
f 20/24/2 24/27/2 23/25/2
f 24/27/3 22/29/3 21/28/3
f 22/29/4 18/21/4 17/23/4
f 26/31/1 27/32/1 25/33/1
f 28/34/2 31/35/2 27/36/2
f 32/37/3 29/38/3 31/35/3
f 30/39/4 25/33/4 29/38/4
f 26/31/1 28/40/1 27/32/1
f 28/34/2 32/37/2 31/35/2
f 32/37/3 30/39/3 29/38/3
f 30/39/4 26/31/4 25/33/4
o Cube
v -15.000000 15.000000 15.000000
v 0.000000 17.350090 0.000000
v -15.000000 15.000000 -15.000000
v 15.000000 15.000000 15.000000
v 15.000000 15.000000 -15.000000
v -15.000000 16.000000 15.000000
v -15.000000 16.000000 -15.000000
v 15.000000 16.000000 -15.000000
v 15.000000 16.000000 15.000000
v -13.739179 16.000000 13.739179
v -13.739179 16.000000 -13.739179
v 13.739179 16.000000 -13.739179
v 13.739179 16.000000 13.739179
vt 0.000059 0.500244
vt 0.250008 0.508577
vt 0.000059 0.508576
vt 0.250008 0.500245
vt 0.499971 0.508578
vt 0.499971 0.500245
vt 0.749949 0.508578
vt 0.749949 0.500245
vt 0.999941 0.508577
vt 0.000059 0.250033
vt 0.250033 0.000059
vt 0.250033 0.250033
vt 0.999941 0.500244
vt 0.000059 0.000059
vt 0.018752 0.481432
vt 0.000059 0.250151
vt 0.018752 0.268845
vt 0.231340 0.481432
vt 0.000059 0.500126
vt 0.231340 0.268845
vt 0.250033 0.500126
vt 0.250033 0.250151
vt 0.063191 0.436994
vt 0.186902 0.436994
vt 0.186902 0.313283
vt 0.063191 0.313283
vn -1.0000 0.0000 0.0000
vn 0.0000 0.0000 -1.0000
vn 1.0000 0.0000 0.0000
vn 0.0000 0.0000 1.0000
vn 0.0000 -1.0000 0.0000
vn 0.0000 1.0000 0.0000
vn -0.0978 0.9952 0.0000
vn 0.0000 0.9952 -0.0978
vn 0.0978 0.9952 0.0000
vn 0.0000 0.9952 0.0978
usemtl None
s off
f 38/41/5 35/42/5 33/43/5
f 39/44/6 37/45/6 35/42/6
f 40/46/7 36/47/7 37/45/7
f 41/48/8 33/49/8 36/47/8
f 37/50/9 33/51/9 35/52/9
f 38/41/5 39/44/5 35/42/5
f 39/44/6 40/46/6 37/45/6
f 40/46/7 41/48/7 36/47/7
f 41/48/8 38/53/8 33/49/8
f 37/50/9 36/54/9 33/51/9
f 43/55/10 38/56/10 42/57/10
f 44/58/10 39/59/10 43/55/10
f 45/60/10 40/61/10 44/58/10
f 42/57/10 41/62/10 45/60/10
f 34/63/11 43/55/11 42/57/11
f 34/64/12 44/58/12 43/55/12
f 34/65/13 45/60/13 44/58/13
f 34/66/14 42/57/14 45/60/14
f 43/55/10 39/59/10 38/56/10
f 44/58/10 40/61/10 39/59/10
f 45/60/10 41/62/10 40/61/10
f 42/57/10 38/56/10 41/62/10
