# Blender v2.79 (sub 0) OBJ File: 'staircase.blend'
# www.blender.org
mtllib staircase.mtl
o Cube
v -4.000000 0.000000 -2.000000
v 4.000000 0.000000 -2.000000
v 4.000000 4.000000 -2.000000
v -4.000000 0.000000 2.000000
v 4.000000 0.000000 2.000000
v 4.000000 4.000000 2.000000
vt 0.381990 0.000098
vt 0.572935 0.381989
vt 0.381989 0.381989
vt 0.381989 0.572935
vt 0.572935 0.572935
vt 0.381989 0.954826
vt 0.000098 0.381989
vt 0.999902 0.572935
vt 0.000098 0.572934
vt 0.999902 0.381990
vn 0.0000 0.0000 -1.0000
vn 1.0000 0.0000 0.0000
vn 0.0000 0.0000 1.0000
vn 0.0000 -1.0000 0.0000
vn -0.4472 0.8944 0.0000
usemtl None
s off
f 1/1/1 3/2/1 2/3/1
f 3/2/2 5/4/2 2/3/2
f 5/4/3 6/5/3 4/6/3
f 3/2/2 6/5/2 5/4/2
f 5/4/4 1/7/4 2/3/4
f 3/2/5 4/8/5 6/5/5
f 5/4/4 4/9/4 1/7/4
f 3/2/5 1/10/5 4/8/5
