# Blender v2.79 (sub 0) OBJ File: 'invisiboy.blend'
# www.blender.org
mtllib invisiboy_arm.mtl
o Cylinder.001
v 0.500000 0.500000 0.781950
v 0.500000 -0.500000 0.781950
v -0.499999 0.500000 0.781951
v -0.499999 -0.500000 0.781951
v 0.277953 -0.277953 0.150000
v 0.277953 0.277953 0.150000
v 0.411385 0.321655 1.746184
v 0.411385 -0.321655 1.746184
v 0.091463 0.321655 2.044569
v 0.091463 -0.321655 2.044569
v 1.234032 -0.152211 2.797151
v 1.234032 0.152211 2.797151
v 1.082641 0.152211 2.938350
v 1.082641 -0.152211 2.938350
v -0.277952 0.277953 0.150000
v -0.277952 -0.277953 0.150000
vt 0.770336 0.261187
vt 0.832751 0.486076
vt 0.682531 0.422101
vt 0.918666 0.084714
vt 0.518838 0.131171
vt 0.516717 0.000098
vt 0.054866 0.914108
vt 0.000098 0.833570
vt 0.054866 0.833570
vt 0.130215 0.000098
vt 0.526314 0.833374
vt 0.361881 0.419405
vt 0.624997 0.586563
vt 0.451104 0.327083
vt 0.796769 0.637886
vt 0.243382 0.552378
vt 0.061822 0.183193
vt 0.096534 0.130578
vt 0.124945 0.054388
vt 0.773006 0.819961
vt 0.999902 0.251153
vt 0.895584 0.353154
vt 0.000098 0.914108
vt 0.000098 0.246520
vn 0.9435 0.0000 -0.3315
vn 0.0909 -0.9911 0.0974
vn 0.6821 0.0000 0.7313
vn 0.0862 -0.9920 0.0924
vn -0.9056 0.0000 0.4242
vn 0.0000 0.9833 0.1819
vn 0.9958 0.0000 0.0915
vn -0.0000 0.9435 -0.3315
vn -0.6697 0.0000 0.7427
vn 0.0862 0.9920 0.0924
vn 0.7875 0.0000 -0.6164
vn -0.9435 0.0000 -0.3315
vn -0.0000 -0.9435 -0.3315
vn 0.0000 -0.9833 0.1819
vn 0.0909 0.9911 0.0974
usemtl Material.001
s off
f 2/1/1 6/2/1 1/3/1
f 4/4/2 8/5/2 10/6/2
f 12/7/3 14/8/3 11/9/3
f 8/5/4 14/10/4 10/6/4
f 4/11/5 9/12/5 3/13/5
f 3/13/6 7/14/6 1/3/6
f 1/3/7 8/5/7 2/1/7
f 1/3/8 15/15/8 3/13/8
f 10/16/9 13/17/9 9/12/9
f 9/12/10 12/18/10 7/14/10
f 7/14/11 11/19/11 8/5/11
f 3/13/12 16/20/12 4/11/12
f 2/1/13 16/21/13 5/22/13
f 2/1/1 5/22/1 6/2/1
f 4/4/14 2/1/14 8/5/14
f 12/7/3 13/23/3 14/8/3
f 8/5/4 11/19/4 14/10/4
f 4/11/5 10/16/5 9/12/5
f 3/13/15 9/12/15 7/14/15
f 1/3/7 7/14/7 8/5/7
f 1/3/8 6/2/8 15/15/8
f 10/16/9 14/24/9 13/17/9
f 9/12/10 13/17/10 12/18/10
f 7/14/11 12/18/11 11/19/11
f 3/13/12 15/15/12 16/20/12
f 2/1/13 4/4/13 16/21/13
