# Blender v2.79 (sub 0) OBJ File: 'invisiboy.blend'
# www.blender.org
mtllib invisiboy.mtl
o Cylinder
v 0.371958 0.300650 0.194960
v 0.214750 0.300650 0.352168
v 0.045290 5.150940 0.032369
v 0.000000 0.300650 0.409710
v 0.000000 5.150940 0.044504
v -0.214750 0.300650 0.352168
v -0.045290 5.150940 0.032369
v -0.371957 0.300650 0.194960
v 0.877212 5.736000 0.087615
v 1.168968 6.198112 1.120393
v 0.309013 5.677139 0.904982
v 0.752951 5.736000 0.440074
v -0.809017 5.677139 0.541710
v -0.309013 5.677139 0.904982
v 0.000000 6.198112 1.604595
v 0.752947 6.078067 0.228669
v -1.168968 6.198112 1.120393
v 0.000000 6.202875 0.804572
v -0.809012 6.202877 0.216793
v -0.525725 6.257783 0.677531
v 0.525725 6.257783 0.677531
v -0.850649 5.229919 0.230312
v 0.000000 5.229923 0.848350
v 0.850649 5.229919 0.441188
v -0.499997 5.151402 0.642113
v 0.499997 5.151402 0.642113
v 0.000000 4.826487 0.479654
v 0.866026 4.300000 0.453924
v 0.866026 2.300000 0.453924
v 0.500000 4.300000 0.819949
v 0.500000 2.300000 0.819949
v 0.000001 4.300000 0.953924
v 0.000001 2.300000 0.953924
v -0.499999 4.300000 0.819950
v -0.499999 2.300000 0.819950
v -0.866025 4.300000 0.453925
v -0.866025 2.300000 0.453925
v 0.809012 6.202877 0.216793
v 0.809017 5.677139 0.541709
v -0.429500 0.300650 0.000000
v -0.090580 5.150940 0.000000
v 0.429500 0.300650 -0.000000
v 0.090580 5.150940 -0.000000
v 0.371958 0.300650 -0.194960
v 0.078445 5.150940 -0.000000
v 0.214750 0.300650 -0.352168
v 0.045290 5.150940 -0.032369
v 0.000000 0.300650 -0.409710
v 0.000000 5.150940 -0.044504
v -0.214750 0.300650 -0.352168
v -0.045290 5.150940 -0.032369
v -0.371957 0.300650 -0.194960
v -0.078445 5.150940 0.000000
v -0.809012 5.151401 0.000000
v 1.653171 6.198112 -0.000000
v 0.000000 6.829272 0.000000
v 0.877212 5.736000 -0.087615
v 1.168968 6.198112 -1.120393
v 0.309013 5.677139 -0.904982
v 0.752951 5.736000 -0.440074
v -0.809017 5.677139 -0.541709
v -0.309013 5.677139 -0.904982
v 0.000000 6.198112 -1.604595
v -1.000000 5.677139 0.000000
v 0.752947 6.078067 -0.228669
v -1.168968 6.198112 -1.120393
v -0.000000 6.202875 -0.804572
v -0.809012 6.202877 -0.216793
v -1.653171 6.198112 0.000000
v -0.850649 6.257783 0.000000
v -0.525725 6.257783 -0.677531
v 0.525725 6.257783 -0.677531
v 0.850649 6.257783 -0.000000
v -0.850649 5.229919 -0.230312
v -0.000000 5.229923 -0.848350
v 0.850649 5.229919 -0.441188
v -0.499997 5.151402 -0.642113
v -0.499995 4.826485 0.000000
v 0.499997 5.151402 -0.642113
v -0.000000 4.826487 -0.479654
v 1.758705 4.670226 -0.000000
v 0.499995 4.826485 -0.000000
v -1.000000 2.300000 0.000000
v -1.000000 4.300000 0.000000
v 1.000000 4.300000 -0.000000
v 1.000000 2.300000 -0.000000
v 0.866026 4.300000 -0.453924
v 0.866026 2.300000 -0.453924
v 0.500000 4.300000 -0.819949
v 0.500000 2.300000 -0.819949
v 0.000000 4.300000 -0.953924
v 0.000000 2.300000 -0.953924
v -0.500000 4.300000 -0.819950
v -0.500000 2.300000 -0.819950
v -0.866025 4.300000 -0.453925
v -0.866025 2.300000 -0.453925
v 0.809012 6.202877 -0.216793
v 0.809017 5.677139 -0.541710
v 1.000000 5.677139 -0.000000
vt 0.335098 0.481528
vt 0.307002 0.420575
vt 0.335158 0.417081
vt 0.335096 0.484613
vt 0.281287 0.429208
vt 0.332885 0.486572
vt 0.251884 0.447882
vt 0.331558 0.489887
vt 0.222727 0.480614
vt 0.335170 0.499181
vt 0.188972 0.530629
vt 0.335170 0.502024
vt 0.153159 0.613272
vt 0.139729 0.656648
vt 0.148677 0.715342
vt 0.097844 0.708554
vt 0.056949 0.642250
vt 0.044550 0.707148
vt 0.798123 0.780316
vt 0.729019 0.946949
vt 0.628726 0.846487
vt 0.870975 0.946949
vt 0.183083 0.754981
vt 0.224224 0.814131
vt 0.158321 0.817774
vt 0.969289 0.851300
vt 0.123981 0.760590
vt 0.199063 0.693913
vt 0.092513 0.824671
vt 0.626957 0.709332
vt 0.313384 0.730916
vt 0.313384 0.803237
vt 0.286434 0.798074
vt 0.670509 0.499356
vt 0.710798 0.499356
vt 0.692003 0.537002
vt 0.245763 0.742452
vt 0.811119 0.456525
vt 0.741239 0.388769
vt 0.801322 0.320191
vt 0.026798 0.686523
vt 0.002437 0.746605
vt 0.064289 0.757708
vt 0.027254 0.814489
vt 0.244862 0.688947
vt 0.670509 0.320191
vt 0.076798 0.308563
vt 0.146775 0.000188
vt 0.176986 0.012046
vt 0.144464 0.301459
vt 0.209548 0.021540
vt 0.335163 0.287426
vt 0.201803 0.295209
vt 0.241541 0.028338
vt 0.211508 0.613683
vt 0.274094 0.031245
vt 0.306261 0.032453
vt 0.250645 0.290864
vt 0.335160 0.032427
vt 0.295434 0.288198
vt 0.296547 0.744228
vt 0.281563 0.779251
vt 0.262098 0.750895
vt 0.764956 0.000188
vt 0.901357 0.000188
vt 0.997808 0.096639
vt 0.331853 0.494165
vt 0.000188 0.818806
vt 0.000188 0.312703
vt 0.999812 0.228202
vt 0.670509 0.091801
vt 0.363325 0.420585
vt 0.389077 0.429235
vt 0.337267 0.486661
vt 0.418312 0.447813
vt 0.338711 0.489864
vt 0.447598 0.480635
vt 0.481355 0.530652
vt 0.517172 0.613306
vt 0.487039 0.656648
vt 0.528924 0.708554
vt 0.478091 0.715342
vt 0.569819 0.642251
vt 0.582219 0.707148
vt 0.725271 0.613683
vt 0.867226 0.613683
vt 0.967520 0.714145
vt 0.443685 0.754982
vt 0.468447 0.817774
vt 0.402544 0.814131
vt 0.502787 0.760591
vt 0.427705 0.693913
vt 0.534255 0.824671
vt 0.340334 0.798074
vt 0.706555 0.474898
vt 0.670509 0.498979
vt 0.670509 0.456902
vt 0.381005 0.742452
vt 0.674548 0.450942
vt 0.599970 0.686523
vt 0.624332 0.746605
vt 0.562479 0.757708
vt 0.599514 0.814489
vt 0.381906 0.688947
vt 0.593520 0.308558
vt 0.493331 0.012046
vt 0.523542 0.000188
vt 0.525849 0.301454
vt 0.460770 0.021540
vt 0.468506 0.295208
vt 0.428778 0.028337
vt 0.415261 0.613683
vt 0.396225 0.031244
vt 0.364058 0.032453
vt 0.419685 0.290869
vt 0.374893 0.288200
vt 0.330221 0.744228
vt 0.345205 0.779251
vt 0.364670 0.750895
vt 0.672514 0.223364
vt 0.905365 0.319815
vt 0.768964 0.319815
vt 0.338538 0.494267
vt 0.626580 0.818806
vt 0.670133 0.312697
vn 0.6698 0.7158 0.1977
vn 0.4921 0.7180 0.4922
vn 0.1801 0.7183 0.6721
vn -0.1801 0.7183 0.6721
vn -0.4921 0.7180 0.4922
vn -0.6698 0.7158 0.1977
vn -0.1947 -0.6617 0.7240
vn -0.3974 -0.8188 0.4143
vn -0.5896 -0.7207 0.3647
vn 0.1499 0.9201 0.3619
vn -0.1499 0.9201 0.3619
vn 0.1955 0.2936 0.9357
vn -0.3525 0.9233 0.1523
vn 0.0000 0.1876 0.9822
vn 0.1947 -0.6617 0.7240
vn -0.1955 0.2936 0.9357
vn 0.3525 0.9233 0.1523
vn 0.9398 0.2417 0.2417
vn 0.9238 0.2013 0.3257
vn 0.5773 -0.1876 0.7947
vn 0.8295 0.2936 0.4751
vn -0.0869 -0.6998 0.7090
vn -0.9386 -0.3410 -0.0534
vn -0.3151 -0.3304 0.8897
vn -0.5773 -0.1876 0.7947
vn -0.5850 0.0971 0.8052
vn -0.9335 -0.1423 0.3291
vn -0.9238 0.2013 0.3257
vn 0.0000 -0.1256 0.9921
vn 0.9430 0.0131 0.3325
vn 0.5850 0.0971 0.8052
vn -0.7488 -0.3304 0.5746
vn 0.3151 -0.3304 0.8897
vn 0.5995 0.4517 0.6608
vn -0.7207 -0.6855 0.1034
vn -0.8295 0.2936 0.4751
vn -0.9251 -0.2640 0.2730
vn -0.7071 0.0000 0.7071
vn -0.6833 -0.2574 0.6833
vn 0.9591 0.0000 0.2831
vn -0.2503 -0.2543 0.9342
vn 0.3974 -0.8188 0.4143
vn 0.2503 -0.2543 0.9342
vn -0.2588 0.0000 0.9659
vn 0.6833 -0.2574 0.6833
vn -0.9591 0.0000 0.2831
vn 0.9251 -0.2640 0.2730
vn 0.2588 0.0000 0.9659
vn 0.5234 -0.1554 0.8378
vn 0.5299 0.8273 0.1868
vn 0.7036 -0.3736 -0.6045
vn 0.0000 -1.0000 0.0000
vn 0.7071 0.0000 0.7071
vn 0.0000 0.4707 0.8823
vn 0.4853 0.7193 0.4970
vn -0.4853 0.7193 0.4970
vn 0.5159 -0.1419 0.8448
vn -0.9398 0.2417 0.2417
vn 0.4168 -0.8111 0.4104
vn 0.6698 0.7158 -0.1977
vn 0.4921 0.7180 -0.4922
vn 0.1801 0.7183 -0.6721
vn -0.1801 0.7183 -0.6721
vn -0.4921 0.7180 -0.4922
vn -0.6698 0.7158 -0.1977
vn -0.1947 -0.6617 -0.7240
vn -0.3974 -0.8188 -0.4143
vn -0.5896 -0.7207 -0.3647
vn 0.1499 0.9201 -0.3619
vn -0.1499 0.9201 -0.3619
vn 0.1955 0.2936 -0.9357
vn -0.3525 0.9233 -0.1523
vn 0.0000 0.1876 -0.9822
vn 0.1947 -0.6617 -0.7240
vn -0.1955 0.2936 -0.9357
vn 0.3525 0.9233 -0.1523
vn 0.9398 0.2417 -0.2417
vn 0.9238 0.2013 -0.3257
vn 0.5773 -0.1876 -0.7947
vn 0.8295 0.2936 -0.4751
vn -0.0869 -0.6998 -0.7090
vn -0.9386 -0.3410 0.0534
vn -0.3151 -0.3304 -0.8897
vn -0.5773 -0.1876 -0.7947
vn -0.5850 0.0971 -0.8052
vn -0.9335 -0.1423 -0.3291
vn -0.9238 0.2013 -0.3257
vn 0.0000 -0.1256 -0.9921
vn 0.9430 0.0131 -0.3325
vn 0.5850 0.0971 -0.8052
vn -0.7488 -0.3304 -0.5746
vn 0.3151 -0.3304 -0.8897
vn 0.5995 0.4517 -0.6608
vn -0.7207 -0.6855 -0.1034
vn -0.8295 0.2936 -0.4751
vn -0.9251 -0.2640 -0.2730
vn -0.7071 0.0000 -0.7071
vn -0.6833 -0.2574 -0.6833
vn 0.9591 0.0000 -0.2831
vn -0.2503 -0.2543 -0.9342
vn 0.3974 -0.8188 -0.4143
vn 0.2503 -0.2543 -0.9342
vn -0.2588 0.0000 -0.9659
vn 0.6833 -0.2574 -0.6833
vn -0.9591 0.0000 -0.2831
vn 0.9251 -0.2640 -0.2730
vn 0.2588 0.0000 -0.9659
vn 0.5234 -0.1554 -0.8378
vn 0.5299 0.8273 -0.1868
vn 0.7036 -0.3736 0.6045
vn 0.7071 0.0000 -0.7071
vn 0.0000 0.4707 -0.8823
vn 0.4853 0.7193 -0.4970
vn -0.4853 0.7193 -0.4971
vn 0.5159 -0.1419 -0.8448
vn -0.9398 0.2417 -0.2417
vn 0.4168 -0.8111 -0.4104
usemtl Material
s off
f 43/1/1 28/2/1 85/3/1
f 45/4/2 30/5/2 28/2/2
f 3/6/3 32/7/3 30/5/3
f 5/8/4 34/9/4 32/7/4
f 34/9/5 53/10/5 36/11/5
f 36/11/6 41/12/6 84/13/6
f 27/14/7 23/15/7 25/16/7
f 78/17/8 27/14/8 25/16/8
f 78/17/9 25/16/9 22/18/9
f 56/19/10 15/20/10 10/21/10
f 17/22/11 15/20/11 56/19/11
f 11/23/12 21/24/12 18/25/12
f 69/26/13 17/22/13 56/19/13
f 14/27/14 11/23/14 18/25/14
f 27/14/15 26/28/15 23/15/15
f 14/27/16 18/25/16 20/29/16
f 56/19/17 10/21/17 55/30/17
f 99/31/18 73/32/18 38/33/18
f 12/34/19 9/35/19 16/36/19
f 26/28/20 39/37/20 11/23/20
f 39/37/21 38/33/21 21/24/21
f 82/38/22 81/39/22 24/40/22
f 54/41/23 22/18/23 64/42/23
f 25/16/24 23/15/24 14/27/24
f 13/43/25 25/16/25 14/27/25
f 13/43/26 14/27/26 20/29/26
f 22/18/27 13/43/27 64/42/27
f 19/44/28 64/42/28 13/43/28
f 23/15/29 11/23/29 14/27/29
f 24/45/30 99/31/30 39/37/30
f 11/23/31 39/37/31 21/24/31
f 22/18/32 25/16/32 13/43/32
f 23/15/33 26/28/33 11/23/33
f 24/40/34 81/39/34 99/46/34
f 78/17/35 22/18/35 54/41/35
f 13/43/36 20/29/36 19/44/36
f 37/47/37 40/48/37 8/49/37
f 36/11/38 35/50/38 34/9/38
f 35/50/39 8/49/39 6/51/39
f 28/2/40 86/52/40 85/3/40
f 33/53/41 6/51/41 4/54/41
f 82/55/42 26/28/42 27/14/42
f 2/56/43 33/53/43 4/54/43
f 35/50/44 32/7/44 34/9/44
f 1/57/45 31/58/45 2/56/45
f 84/13/46 37/47/46 36/11/46
f 42/59/47 29/60/47 1/57/47
f 32/7/48 31/58/48 30/5/48
f 9/61/49 38/33/49 16/62/49
f 9/61/50 39/37/50 99/31/50
f 16/62/51 39/37/51 12/63/51
f 10/64/52 15/65/52 17/66/52
f 30/5/53 29/60/53 28/2/53
f 43/1/54 45/4/54 28/2/54
f 45/4/55 3/6/55 30/5/55
f 3/6/3 5/8/3 32/7/3
f 5/8/4 7/67/4 34/9/4
f 34/9/56 7/67/56 53/10/56
f 36/11/54 53/10/54 41/12/54
f 26/28/57 24/45/57 39/37/57
f 19/44/58 70/68/58 64/42/58
f 37/47/37 83/69/37 40/48/37
f 36/11/38 37/47/38 35/50/38
f 35/50/39 37/47/39 8/49/39
f 28/2/40 29/60/40 86/52/40
f 33/53/41 35/50/41 6/51/41
f 82/55/59 24/45/59 26/28/59
f 2/56/43 31/58/43 33/53/43
f 35/50/44 33/53/44 32/7/44
f 1/57/45 29/60/45 31/58/45
f 84/13/46 83/69/46 37/47/46
f 42/59/47 86/52/47 29/60/47
f 32/7/48 33/53/48 31/58/48
f 9/61/49 99/31/49 38/33/49
f 9/61/50 12/63/50 39/37/50
f 16/62/51 38/33/51 39/37/51
f 17/66/52 69/70/52 55/71/52
f 55/71/52 10/64/52 17/66/52
f 30/5/53 31/58/53 29/60/53
f 43/1/60 85/3/60 87/72/60
f 45/4/61 87/72/61 89/73/61
f 47/74/62 89/73/62 91/75/62
f 49/76/63 91/75/63 93/77/63
f 93/77/64 95/78/64 53/10/64
f 95/78/65 84/79/65 41/12/65
f 80/80/66 77/81/66 75/82/66
f 78/83/67 77/81/67 80/80/67
f 78/83/68 74/84/68 77/81/68
f 56/19/69 58/85/69 63/86/69
f 66/87/70 56/19/70 63/86/70
f 59/88/71 67/89/71 72/90/71
f 69/26/72 56/19/72 66/87/72
f 62/91/73 67/89/73 59/88/73
f 80/80/74 75/82/74 79/92/74
f 62/91/75 71/93/75 67/89/75
f 56/19/76 55/30/76 58/85/76
f 99/31/77 97/94/77 73/32/77
f 60/95/78 65/96/78 57/97/78
f 79/92/79 59/88/79 98/98/79
f 98/98/80 72/90/80 97/94/80
f 82/38/81 76/99/81 81/39/81
f 54/100/82 64/101/82 74/84/82
f 77/81/83 62/91/83 75/82/83
f 61/102/84 62/91/84 77/81/84
f 61/102/85 71/93/85 62/91/85
f 74/84/86 64/101/86 61/102/86
f 68/103/87 61/102/87 64/101/87
f 75/82/88 62/91/88 59/88/88
f 76/104/89 98/98/89 99/31/89
f 59/88/90 72/90/90 98/98/90
f 74/84/91 61/102/91 77/81/91
f 75/82/92 59/88/92 79/92/92
f 76/99/93 99/46/93 81/39/93
f 78/83/94 54/100/94 74/84/94
f 61/102/95 68/103/95 71/93/95
f 96/105/96 52/106/96 40/107/96
f 95/78/97 93/77/97 94/108/97
f 94/108/98 50/109/98 52/106/98
f 87/72/99 85/3/99 86/52/99
f 92/110/100 48/111/100 50/109/100
f 82/112/101 80/80/101 79/92/101
f 46/113/102 48/111/102 92/110/102
f 94/108/103 93/77/103 91/75/103
f 44/114/104 46/113/104 90/115/104
f 84/79/105 95/78/105 96/105/105
f 42/59/106 44/114/106 88/116/106
f 91/75/107 89/73/107 90/115/107
f 57/117/108 65/118/108 97/94/108
f 57/117/109 99/31/109 98/98/109
f 65/118/110 60/119/110 98/98/110
f 58/120/52 66/121/52 63/122/52
f 89/73/111 87/72/111 88/116/111
f 43/1/112 87/72/112 45/4/112
f 45/4/113 89/73/113 47/74/113
f 47/74/62 91/75/62 49/76/62
f 49/76/63 93/77/63 51/123/63
f 93/77/114 53/10/114 51/123/114
f 95/78/112 41/12/112 53/10/112
f 79/92/115 98/98/115 76/104/115
f 68/103/116 64/101/116 70/124/116
f 96/105/96 40/107/96 83/125/96
f 95/78/97 94/108/97 96/105/97
f 94/108/98 52/106/98 96/105/98
f 87/72/99 86/52/99 88/116/99
f 92/110/100 50/109/100 94/108/100
f 82/112/117 79/92/117 76/104/117
f 46/113/102 92/110/102 90/115/102
f 94/108/103 91/75/103 92/110/103
f 44/114/104 90/115/104 88/116/104
f 84/79/105 96/105/105 83/125/105
f 42/59/106 88/116/106 86/52/106
f 91/75/107 90/115/107 92/110/107
f 57/117/108 97/94/108 99/31/108
f 57/117/109 98/98/109 60/119/109
f 65/118/110 98/98/110 97/94/110
f 66/121/52 55/71/52 69/70/52
f 55/71/52 66/121/52 58/120/52
f 89/73/111 88/116/111 90/115/111
