# Blender v2.79 (sub 0) OBJ File: 'robot_body.blend'
# www.blender.org
mtllib robot_body.mtl
o Cube.001
v -0.400000 1.750000 0.700000
v -0.400000 1.850000 0.800000
v -0.500000 1.850000 0.700000
v -0.400000 3.650000 0.800000
v -0.400000 3.750000 0.700000
v -0.500000 3.650000 0.700000
v -0.400000 1.750000 -0.700000
v -0.500000 1.850000 -0.700000
v -0.400000 1.850000 -0.800000
v -0.400000 3.750000 -0.700000
v -0.400000 3.650000 -0.800000
v -0.500000 3.650000 -0.700000
v 0.400000 1.750000 0.700000
v 0.500000 1.850000 0.700000
v 0.400000 1.850000 0.800000
v 0.400000 3.750000 0.700000
v 0.400000 3.650000 0.800000
v 0.500000 3.650000 0.700000
v 0.400000 1.750000 -0.700000
v 0.400000 1.850000 -0.800000
v 0.500000 1.850000 -0.700000
v 0.400000 3.750000 -0.700000
v 0.500000 3.650000 -0.700000
v 0.400000 3.650000 -0.800000
vt 0.971372 0.362531
vt 0.999842 0.000157
vt 0.999843 0.362531
vt 0.558092 0.523901
vt 0.839939 0.362846
vt 0.839939 0.523900
vt 0.000157 0.743316
vt 0.282003 0.582261
vt 0.282003 0.743316
vt 0.810317 0.362531
vt 0.971372 0.000157
vt 0.310474 0.362531
vt 0.471529 0.000157
vt 0.471529 0.362531
vt 0.500000 0.362531
vt 0.781846 0.000157
vt 0.781846 0.362531
vt 0.029734 0.393063
vt 0.000157 0.387726
vt 0.023718 0.362846
vt 0.534348 0.696825
vt 0.528547 0.666265
vt 0.557778 0.672128
vt 0.303577 0.392078
vt 0.309440 0.362847
vt 0.334136 0.386276
vt 0.527561 0.392423
vt 0.532898 0.362846
vt 0.557778 0.386406
vt 0.034944 0.552715
vt 0.029080 0.581946
vt 0.004384 0.558516
vt 0.368895 0.671475
vt 0.363558 0.701052
vt 0.338678 0.677492
vt 0.308786 0.551729
vt 0.338363 0.557067
vt 0.314803 0.581947
vt 0.367909 0.397632
vt 0.338678 0.391769
vt 0.362108 0.367073
vt 0.000157 0.362531
vt 0.282003 0.000157
vt 0.282003 0.362531
vt 0.500000 0.000157
vt 0.310474 0.000157
vt 0.810317 0.000157
vt 0.558092 0.362846
vt 0.000157 0.582261
vt 0.000157 0.000157
vn -0.7071 0.0000 -0.7071
vn 0.0000 -1.0000 0.0000
vn 0.0000 1.0000 0.0000
vn 0.0000 0.0000 -1.0000
vn 0.0000 0.0000 1.0000
vn 1.0000 0.0000 0.0000
vn -0.5774 -0.5773 0.5774
vn -0.5774 0.5774 0.5774
vn -0.5774 -0.5773 -0.5774
vn -0.5774 0.5774 -0.5774
vn 0.5774 -0.5773 0.5774
vn 0.5774 0.5774 0.5774
vn 0.5774 -0.5773 -0.5774
vn 0.5774 0.5774 -0.5774
vn -1.0000 0.0000 0.0000
vn -0.7071 0.7071 0.0000
vn 0.7071 0.0000 0.7071
vn -0.7071 0.0000 0.7071
vn -0.7071 -0.7071 0.0000
vn 0.0000 -0.7071 -0.7071
vn 0.0000 0.7071 -0.7071
vn 0.7071 0.0000 -0.7071
vn 0.7071 -0.7071 0.0000
vn 0.7071 0.7071 0.0000
vn 0.0000 -0.7071 0.7071
vn 0.0000 0.7071 0.7071
usemtl None
s off
f 11/1/1 8/2/1 12/3/1
f 13/4/2 7/5/2 19/6/2
f 5/7/3 22/8/3 10/9/3
f 24/10/4 9/11/4 11/1/4
f 4/12/5 15/13/5 17/14/5
f 18/15/6 21/16/6 23/17/6
f 1/18/7 2/19/7 3/20/7
f 4/21/8 5/22/8 6/23/8
f 7/24/9 8/25/9 9/26/9
f 10/27/10 11/28/10 12/29/10
f 13/30/11 14/31/11 15/32/11
f 16/33/12 17/34/12 18/35/12
f 19/36/13 20/37/13 21/38/13
f 22/39/14 23/40/14 24/41/14
f 12/42/15 3/43/15 6/44/15
f 5/22/16 12/29/16 6/23/16
f 17/14/17 14/45/17 18/15/17
f 2/46/18 6/44/18 3/43/18
f 7/24/19 3/20/19 8/25/19
f 19/36/20 9/26/20 20/37/20
f 10/27/21 24/41/21 11/28/21
f 23/17/22 20/47/22 24/10/22
f 13/30/23 21/38/23 14/31/23
f 22/39/24 18/35/24 23/40/24
f 1/18/25 15/32/25 2/19/25
f 16/33/26 4/21/26 17/34/26
f 11/1/1 9/11/1 8/2/1
f 13/4/2 1/48/2 7/5/2
f 5/7/3 16/49/3 22/8/3
f 24/10/4 20/47/4 9/11/4
f 4/12/5 2/46/5 15/13/5
f 18/15/6 14/45/6 21/16/6
f 12/42/15 8/50/15 3/43/15
f 5/22/16 10/27/16 12/29/16
f 17/14/17 15/13/17 14/45/17
f 2/46/18 4/12/18 6/44/18
f 7/24/19 1/18/19 3/20/19
f 19/36/20 7/24/20 9/26/20
f 10/27/21 22/39/21 24/41/21
f 23/17/22 21/16/22 20/47/22
f 13/30/23 19/36/23 21/38/23
f 22/39/24 16/33/24 18/35/24
f 1/18/25 13/30/25 15/32/25
f 16/33/26 5/22/26 4/21/26
o Cube.002
v 0.400000 3.326393 0.800001
v -0.338197 1.850000 0.800000
v 0.400000 1.850000 0.800000
v -0.338197 3.650000 -0.799999
v 0.400000 3.650000 -0.799999
v 0.400000 2.173607 -0.800000
v 0.500000 3.650000 -0.591937
v 0.500000 3.650000 0.700001
v 0.500000 2.035078 0.700000
v 0.338197 3.650000 0.800001
v -0.400000 3.650000 0.800001
v -0.400000 2.173607 0.800000
v -0.500000 3.464922 0.700001
v -0.500000 1.850000 -0.591938
v -0.500000 1.850000 0.700000
v 0.500000 3.464922 -0.699999
v 0.500000 1.850000 0.591938
v 0.500000 1.850000 -0.700000
v -0.400000 3.326393 -0.799999
v 0.338197 1.850000 -0.800000
v -0.400000 1.850000 -0.800000
v -0.319575 3.750000 -0.699999
v 0.400000 3.750000 0.451321
v 0.400000 3.750000 -0.699999
v 0.400000 1.750000 -0.451320
v 0.400000 1.750000 0.700000
v -0.319575 1.750000 0.700000
v -0.400000 3.750000 -0.451319
v -0.400000 3.750000 0.700001
v 0.319575 3.750000 0.700001
v -0.500000 3.650000 0.591939
v -0.500000 3.650000 -0.699999
v -0.500000 2.035078 -0.700000
v -0.400000 1.750000 -0.700000
v 0.319575 1.750000 -0.700000
v -0.400000 1.750000 0.451320
vt -0.404906 -0.144504
vt -0.666987 -0.668667
vt -0.404906 -0.668667
vt 0.496227 -0.029615
vt 0.234146 -0.029615
vt 0.234146 -0.553777
vt 0.124775 -0.029615
vt -0.333901 -0.029615
vt -0.333901 -0.602959
vt -0.426848 -0.029615
vt -0.688929 -0.029615
vt -0.688929 -0.553777
vt 1.086215 -0.095323
vt 0.627540 -0.668666
vt 1.086215 -0.668666
vt 0.163140 -0.095323
vt -0.295535 -0.668667
vt 0.163140 -0.668667
vt 0.518169 -0.144504
vt 0.256088 -0.668667
vt 0.518169 -0.668667
vt 1.144123 1.580161
vt 0.735371 1.324691
vt 1.144123 1.324691
vt 1.567705 -0.384643
vt 1.158953 -0.384643
vt 1.158953 -0.640113
vt 1.055835 1.608714
vt 0.647083 1.608714
vt 0.647083 1.353244
vt 1.047850 -0.029615
vt 0.589174 -0.029615
vt 0.589174 -0.602958
vt 1.149268 -0.688033
vt 1.139406 -0.694197
vt 1.158953 -0.704169
vt 1.121718 -0.029615
vt 1.075573 -0.051793
vt 0.570990 -0.682521
vt 0.589175 -0.704169
vt 1.153808 1.628081
vt 1.163670 1.634244
vt 1.144123 1.644217
vt -0.352085 -0.682521
vt -0.333900 -0.704170
vt 0.637398 1.305324
vt 0.627536 1.299160
vt 0.647083 1.289188
vt 1.691496 -0.406585
vt 1.665966 -0.365097
vt 1.655993 -0.413197
vt 1.105758 1.289188
vt 1.179626 1.324691
vt 1.247241 -0.668667
vt 1.617628 -0.704170
vt 1.655993 -0.668667
vt -0.724432 -0.095323
vt -0.724432 -0.668667
vt 0.685448 1.644217
vt 1.691496 -0.668667
vt 1.179626 1.586772
vt 1.197318 -0.349141
vt 1.123450 -0.384643
vt 1.123450 -0.646724
vt 0.611580 1.608714
vt 0.611580 1.346633
vt 1.177769 -0.670220
vt 1.107863 -0.011430
vt 0.616898 -0.625137
vt 1.125307 1.610267
vt -0.306177 -0.625137
vt 0.665899 1.323137
vt 1.586521 -0.414750
vt 1.691496 -0.384643
vt 1.144123 1.289188
vt 1.655993 -0.349141
vn 0.0000 -0.0000 1.0000
vn 0.0000 0.0000 -1.0000
vn 1.0000 0.0000 0.0000
vn -1.0000 -0.0000 0.0000
vn 0.0000 1.0000 0.0000
vn 0.0000 -1.0000 -0.0000
vn -0.5231 -0.0999 0.8464
vn -0.8738 0.2452 0.4200
vn -0.8270 -0.3975 -0.3975
vn -0.5231 0.0999 -0.8464
vn 0.8270 -0.3975 0.3975
vn 0.5231 0.0999 0.8464
vn 0.3814 -0.6882 -0.6172
vn 0.8270 0.3975 -0.3975
vn -0.7071 -0.7071 -0.0000
vn -0.7071 -0.0000 0.7071
vn -0.7071 0.7071 0.0000
vn -0.7071 0.0000 -0.7071
vn 0.0000 -0.7071 -0.7071
vn 0.0000 0.7071 -0.7071
vn 0.7071 0.0000 -0.7071
vn 0.7071 -0.7071 -0.0000
vn 0.7071 0.7071 0.0000
vn 0.7071 -0.0000 0.7071
vn 0.0000 -0.7071 0.7071
vn 0.0000 0.7071 0.7071
vn -0.4789 -0.8641 0.1549
vn -0.3814 -0.6882 0.6172
vn -0.8270 0.3975 0.3975
vn -0.8738 -0.2452 -0.4200
vn -0.4789 0.8641 -0.1549
vn -0.3814 0.6882 -0.6172
vn 0.8738 -0.2452 0.4200
vn 0.4789 0.8641 0.1549
vn 0.3814 0.6882 0.6172
vn 0.4789 -0.8641 -0.1549
vn 0.5231 -0.0999 -0.8464
vn 0.8738 0.2452 -0.4200
usemtl SpaceMat
s 1
f 25/51/27 26/52/27 27/53/27
f 28/54/28 29/55/28 30/56/28
f 31/57/29 32/58/29 33/59/29
f 34/60/27 35/61/27 36/62/27
f 37/63/30 38/64/30 39/65/30
f 40/66/29 41/67/29 42/68/29
f 43/69/28 44/70/28 45/71/28
f 46/72/31 47/73/31 48/74/31
f 49/75/32 50/76/32 51/77/32
f 52/78/31 53/79/31 54/80/31
f 55/81/30 56/82/30 57/83/30
f 26/84/33 36/85/33 39/86/33
f 35/87/34 55/88/34 37/63/34
f 38/64/35 45/89/35 58/90/35
f 28/91/36 43/92/36 56/93/36
f 41/67/37 27/94/37 50/95/37
f 34/96/38 25/97/38 32/98/38
f 44/99/39 42/100/39 59/101/39
f 31/102/40 29/103/40 48/74/40
f 60/104/41 38/105/41 58/106/41
f 36/62/42 37/107/42 39/108/42
f 52/78/43 55/109/43 53/79/43
f 43/69/44 57/83/44 56/82/44
f 59/101/45 45/110/45 44/99/45
f 46/72/46 29/103/46 28/111/46
f 40/66/47 30/56/47 29/55/47
f 49/75/48 41/112/48 50/76/48
f 47/73/49 31/102/49 48/74/49
f 25/51/50 33/59/50 32/58/50
f 51/77/51 27/113/51 26/114/51
f 54/80/52 35/115/52 34/116/52
f 37/63/30 57/83/30 38/64/30
f 43/69/28 30/56/28 44/70/28
f 40/66/29 33/59/29 41/67/29
f 25/51/27 36/62/27 26/52/27
f 60/104/32 49/75/32 51/77/32
f 47/73/31 52/78/31 54/80/31
f 59/101/32 60/104/32 58/106/32
f 39/86/53 60/104/53 51/117/53
f 51/117/54 26/84/54 39/86/54
f 35/87/55 53/118/55 55/88/55
f 38/64/56 57/119/56 45/89/56
f 56/93/57 52/78/57 46/120/57
f 46/120/58 28/91/58 56/93/58
f 41/67/59 33/121/59 27/94/59
f 32/98/60 47/73/60 54/122/60
f 54/122/61 34/96/61 32/98/61
f 49/123/62 59/101/62 42/100/62
f 44/99/63 30/124/63 42/100/63
f 31/102/64 40/125/64 29/103/64
f 60/104/41 39/86/41 38/105/41
f 36/62/42 35/61/42 37/107/42
f 52/78/43 56/93/43 55/109/43
f 43/69/44 45/71/44 57/83/44
f 59/101/45 58/106/45 45/110/45
f 46/72/46 48/74/46 29/103/46
f 40/66/47 42/68/47 30/56/47
f 49/75/48 42/126/48 41/112/48
f 47/73/49 32/98/49 31/102/49
f 25/51/50 27/53/50 33/59/50
f 51/77/51 50/76/51 27/113/51
f 54/80/52 53/79/52 35/115/52
f 37/63/30 55/81/30 57/83/30
f 43/69/28 28/54/28 30/56/28
f 40/66/29 31/57/29 33/59/29
f 25/51/27 34/60/27 36/62/27
f 60/104/32 59/101/32 49/75/32
f 47/73/31 46/72/31 52/78/31
